<svg id="gradient" enable-background="new 0 0 512 512" height="512" viewBox="0 0 512 512" width="512" xmlns="http://www.w3.org/2000/svg" xmlns:xlink="http://www.w3.org/1999/xlink"><linearGradient id="SVGID_1_" gradientUnits="userSpaceOnUse" x1="4.343" x2="491.657" y1="40.343" y2="527.657"><stop offset="0" stop-color="#ff5100"/><stop offset=".0699655" stop-color="#fe5e00"/><stop offset=".2008043" stop-color="#fc8200"/><stop offset=".3772338" stop-color="#f8bb00"/><stop offset=".3851138" stop-color="#f7be00"/><stop offset=".4164307" stop-color="#f1be0a"/><stop offset=".4700268" stop-color="#e1bf25"/><stop offset=".5394413" stop-color="#c6c052"/><stop offset=".6219459" stop-color="#a1c190"/><stop offset=".7146014" stop-color="#72c3dd"/><stop offset=".7273466" stop-color="#6bc4e8"/><stop offset=".7781056" stop-color="#67a6d1"/><stop offset=".8816878" stop-color="#5f6da6"/><stop offset=".9587147" stop-color="#594a8b"/><stop offset="1" stop-color="#573c81"/></linearGradient><path d="m120 40c0 4.418457-3.5820313 8-8 8h-32c-4.4179688 0-8-3.581543-8-8s3.5820313-8 8-8h32c4.4179688 0 8 3.581543 8 8zm-8 24h-32c-4.4179688 0-8 3.581543-8 8s3.5820313 8 8 8h32c4.4179688 0 8-3.581543 8-8s-3.5820312-8-8-8zm0 32h-32c-4.4179688 0-8 3.581543-8 8s3.5820313 8 8 8h32c4.4179688 0 8-3.581543 8-8s-3.5820312-8-8-8zm400 336v72c0 4.418457-3.5820313 8-8 8h-496c-4.4179688 0-8-3.581543-8-8v-72c0-4.418457 3.5820313-8 8-8h24v-32c0-2.2089844.8955078-4.2088623 2.3430176-5.6564941l-.0002441-.0002441 13.8613281-13.8613281 7.6894531-123.0244141-31.2041016-70.2084961c-1.0585938-2.3818359-.890625-5.1298828.4501953-7.3647461l17.8095703-29.6827393c-1.7988281-1.466919-2.9492187-3.6991577-2.9492187-6.2015381v-128c0-4.418457 3.5820313-8 8-8h96c4.4179688 0 8 3.581543 8 8v128c0 2.5023804-1.1503906 4.7346191-2.9492188 6.2015381l17.8095703 29.6827393c1.3408203 2.2348633 1.5087891 4.9829102.4501953 7.3647461l-31.2041016 70.2084961 7.6894531 123.0244141 13.8613281 13.8613281-.0002441.0002441c1.4475099 1.4476318 2.3430177 3.4475097 2.3430177 5.6564941v32h32v-32c0-2.2089844.8955078-4.2088623 2.3430176-5.6564941l-.0002441-.0002441 13.8613281-13.8613281 7.6894531-123.0244141-31.2041016-70.2084961c-1.0585938-2.3818359-.890625-5.1298828.4501953-7.3647461l24-40 .0170898.0102539c.3317871-.5534668.7163086-1.0812378 1.1860352-1.5512695l21.6572266-21.6567384v-8.4052734l-20.4375-13.625c-1.3466797-.8974609-2.3896484-2.1826172-2.9902344-3.6850586l-16-40c-.9863281-2.4648438-.6845703-5.2578125.8027344-7.4560547 1.4882813-2.1982422 3.9707031-3.5151367 6.625-3.5151367h16c0-2.5180664 1.1855469-4.8891602 3.2001953-6.3999023l32-24c2.84375-2.1337891 6.7558594-2.1337891 9.5996094 0l32 24c2.0146484 1.5107421 3.2001953 3.8818359 3.2001953 6.3999023h16c2.6542969 0 5.1367188 1.3168945 6.625 3.5151367 1.4873047 2.1982422 1.7890625 4.9912109.8027344 7.4560547l-16 40c-.6005859 1.5024414-1.6435547 2.7875977-2.9902344 3.6850586l-20.4375 13.625v8.4052734l21.6572266 21.6567383c.4697266.4700317.854248.9978027 1.1860352 1.5512695l.0170898-.0102539 24 40c1.3408203 2.2348633 1.5087891 4.9829102.4501953 7.3647461l-31.2041016 70.2084961 7.6894531 123.0244141 13.8613281 13.8613281-.0002441.0002441c1.4475098 1.4476319 2.3430176 3.4475098 2.3430176 5.6564942v32h32v-32c0-2.2089844.8955078-4.2088623 2.3430176-5.6564941l-.0002441-.0002441 13.8613281-13.8613281 7.6894531-123.0244141-31.2041016-70.2084961c-1.0585938-2.3818359-.890625-5.1298828.4501953-7.3647461l24-40c1.4462891-2.409668 4.0498047-3.8842774 6.8603516-3.8842774h16c.4833984 0 .9575195.0581055 1.4245605.1428223-.9204101-2.5438843-1.4245605-5.2853394-1.4245605-8.1428223v-6.1308594c-4.9060059-4.397522-8-10.7778931-8-17.8691406v-9.3725586c0-2.1367188-.8320313-4.1459961-2.34375-5.6572266-18.1796875-18.1796875-18.1796875-47.7607422 0-65.9404297l.6865234-.6865234c18.5585938-18.5585938 48.7558594-18.5585938 67.3144531 0l.6865234.6865234c18.1796875 18.1796875 18.1796875 47.7607422 0 65.9404297-1.5117186 1.5112305-2.3437499 3.5205079-2.3437499 5.6572266v9.3725586c0 7.0912476-3.0939941 13.4716187-8 17.8691406v6.1308594c0 2.8575439-.5041504 5.598938-1.4245605 8.1428223.467041-.0847779.9411621-.1428223 1.4245605-.1428223h16c2.8105469 0 5.4140625 1.4746094 6.8603516 3.8842773l24 40c1.3408203 2.2348633 1.5087891 4.9829102.4501953 7.3647461l-31.2041016 70.2084961 7.6894531 123.0244141 13.8613281 13.8613281-.0002441.0002441c1.4475098 1.4476319 2.3430176 3.4475098 2.3430176 5.6564942v32h24c4.4179688 0 8 3.581543 8 8zm-59.3139648-48-2.3432617-2.3432617c-1.3779297-1.378418-2.2060547-3.2124023-2.3271484-5.1577148l-6.0312501-96.4990235h-51.96875l-6.03125 96.4990234c-.1210938 1.9453125-.9492188 3.7792969-2.3271484 5.1577148l-2.3432618 2.3432618h6.5759277l22.392334-82.1049805c.9492188-3.4804687 4.1103516-5.8950195 7.7177735-5.8950195s6.7685547 2.4145508 7.7177734 5.8950195l22.392334 82.1049805zm-36.6860352-49.5952148-13.5263672 49.5952148h27.0527344zm-1.4414062-134.4047852h2.8828125l4.7998047-24h-12.4824219zm1.4414062 29.5405273-7.0097656 17.5234375 7.0097656 10.5136719 7.0097656-10.5136719zm36.5078125-83.8120117 10.9199219 27.300293c.8486328 2.121582.75 4.5048828-.2724609 6.5488281l-16 32c-1.3554688 2.7104492-4.1250001 4.4223633-7.1552735 4.4223633h-12.1838379l11.6115723 29.0288086c.9785156 2.4458008.6904297 5.2167969-.7714844 7.4086914l-7.708252 11.5625h10.036377l-.96875-15.5009766c-.0800781-1.2851563.1503906-2.5712891.6738281-3.7480469l30.3115234-68.2006836zm-59.5371094-76.0717773c4.5332032 4.5332031 7.0292969 10.5600586 7.0292969 16.9707031v9.3725586c0 4.4111328 3.5888672 8 8 8h16c4.4111328 0 8-3.5888672 8-8v-9.3725586c0-6.4106445 2.4960938-12.4375 7.0292969-16.9707031 11.9414063-11.9414063 11.9414063-31.3720703 0-43.3134766l-.6865234-.6865234c-6.1591797-6.159668-14.2509766-9.2397461-22.3427735-9.2397461s-16.1835938 3.0800781-22.3427734 9.2397461l-.6865234.6865234c-11.9414063 11.9414063-11.9414063 31.3720703-.0000001 43.3134766zm15.0292969 50.3432617c0 4.4111328 3.5888672 8 8 8s8-3.5888672 8-8zm-23.2382812 55.6357422 12.1826171 24.3642578h1.2971191l-6.0861816-30.4311523c-.4697266-2.3500977.1386719-4.7871094 1.6582031-6.640625s3.7900391-2.9282227 6.1865235-2.9282227h32c2.3964844 0 4.6669922 1.074707 6.1865234 2.9282227s2.1279297 4.2905273 1.6582031 6.640625l-6.0861816 30.4311523h1.2971191l12.1826172-24.3642578-14.6660156-36.6645508c-.1669922-.4171753-.2834473-.8453979-.3769531-1.2769165-4.2719727 3.9133301-9.9589844 6.3057251-16.1953125 6.3057251s-11.9233398-2.392395-16.1953125-6.3057251c-.0935059.4315186-.2099609.8597412-.3769531 1.2769165zm6.5488281 69.1152344c.5234375 1.1767578.7539063 2.4628906.6738281 3.7480469l-.96875 15.5009765h10.036377l-7.708252-11.5625c-1.4619141-2.1918945-1.75-4.9628906-.7714844-7.4086914l11.6115723-29.0288086h-12.1838379c-3.0302734 0-5.7998047-1.7119141-7.1552734-4.4223633l-16-32c-1.0224609-2.0439453-1.1210938-4.4272461-.2724609-6.5488281l10.9199219-27.300293-18.4931641 30.8217773zm-98.6245117 139.2490234-2.3432617-2.3432617c-1.3779297-1.378418-2.2060547-3.2124023-2.3271484-5.1577148l-6.0312501-96.4990235h-51.96875l-6.03125 96.4990234c-.1210938 1.9453125-.9492188 3.7792969-2.3271484 5.1577148l-2.3432618 2.3432618h6.5759277l22.392334-82.1049805c.9492188-3.4804687 4.1103516-5.8950195 7.7177735-5.8950195s6.7685547 2.4145508 7.7177734 5.8950195l22.392334 82.1049805zm-36.6860352-49.5952148-13.5263672 49.5952148h27.0527344zm-31.2382812-158.769043 12.1826171 24.3642578h1.2971191l-6.0861816-30.4311523c-.4697266-2.3500977.1386719-4.7871094 1.6582031-6.640625s3.7900391-2.9282227 6.1865235-2.9282227h32c2.3964844 0 4.6669922 1.074707 6.1865234 2.9282227s2.1279297 4.2905273 1.6582031 6.640625l-6.0861816 30.4311523h1.2971191l12.1826172-24.3642578-12.654541-31.6357422h-37.1674805zm31.2382812 53.9047851-7.0097656 17.5234375 7.0097656 10.5136719 7.0097656-10.5136719zm-1.4414062-29.5405273h2.8828125l4.7998047-24h-12.4824219zm56.4423828-23.449707-18.4929199-30.8207397 10.9196777 27.2992554c.8486328 2.121582.75 4.5048828-.2724609 6.5488281l-16 32c-1.3544922 2.7104491-4.1250001 4.4223632-7.1552735 4.4223632h-12.1838379l11.6115723 29.0288086c.9785156 2.4458008.6904297 5.2167969-.7714844 7.4086914l-7.708252 11.5625h10.036377l-.96875-15.5009766c-.0800781-1.2851563.1503906-2.5712891.6738281-3.7480469zm-66.5634766-87.206543c2.2255859 1.4833984 3.5625 3.9814453 3.5625 6.65625v16c0 2.121582-.8427734 4.1567383-2.3427734 5.6567383l-10.34375 10.3432617h41.3730469l-10.34375-10.3432617c-1.5000001-1.5-2.3427735-3.5351563-2.3427735-5.6567383v-16c0-2.6748047 1.3369141-5.1728516 3.5625-6.65625l21.9326172-14.6220703 10.6884766-26.7216797h-12.1835938c-4.4179688 0-8-3.581543-8-8v-4l-24-18-24 18v4c0 4.418457-3.5820313 8-8 8h-12.1835938l10.6884766 26.7216797zm-13.1269531 155.4072266c.5234375 1.1767578.7539063 2.4628906.6738281 3.7480469l-.96875 15.5009765h10.036377l-7.708252-11.5625c-1.4619141-2.1918945-1.75-4.9628906-.7714844-7.4086914l11.6115723-29.0288086h-12.1838379c-3.0302734 0-5.8007813-1.7119141-7.1552734-4.4223633l-16-32c-1.0224609-2.0439453-1.1210938-4.4272461-.2724609-6.5488281l10.9196777-27.2992554-18.4929199 30.8207397zm-98.6245117 139.2490234-2.3432617-2.3432617c-1.3779297-1.378418-2.2060547-3.2124023-2.3271484-5.1577148l-6.0312501-96.4990235h-51.96875l-6.03125 96.4990234c-.1210938 1.9453125-.9492188 3.7792969-2.3271484 5.1577148l-2.3432618 2.3432618h6.5759277l22.392334-82.1049805c.9492188-3.4804687 4.1103516-5.8950195 7.7177735-5.8950195s6.7685547 2.4145508 7.7177734 5.8950195l22.392334 82.1049805zm-36.6860352-49.5952148-13.5263672 49.5952148h27.0527344zm-31.2382812-158.769043 12.1826171 24.3642578h1.2971191l-6.0861816-30.4311523c-.4697266-2.3500977.1386719-4.7871094 1.6582031-6.640625s3.7900391-2.9282227 6.1865235-2.9282227h32c2.3964844 0 4.6669922 1.074707 6.1865234 2.9282227s2.1279297 4.2905273 1.6582031 6.640625l-6.0861816 30.4311523h1.2971191l12.1826172-24.3642578-12.654541-31.6357422h-37.1674804zm31.2382812 53.9047851-7.0097656 17.5234375 7.0097656 10.5136719 7.0097656-10.5136719zm-1.4414062-29.5405273h2.8828125l4.7998047-24h-12.4824219zm56.4423828-23.449707-18.4929199-30.8207397 10.9196777 27.2992554c.8486328 2.121582.75 4.5048828-.2724609 6.5488281l-16 32c-1.3544922 2.7104491-4.1250001 4.4223632-7.1552735 4.4223632h-12.1838379l11.6115723 29.0288086c.9785156 2.4458008.6904297 5.2167969-.7714844 7.4086914l-7.708252 11.5625h10.036377l-.96875-15.5009766c-.0800781-1.2851563.1503906-2.5712891.6738281-3.7480469zm-95.0009766-48.550293h80v-112h-80zm15.3105469 116.7509766c.5234375 1.1767578.7539063 2.4628906.6738281 3.7480469l-.96875 15.5009765h10.036377l-7.708252-11.5625c-1.4619141-2.1918945-1.75-4.9628906-.7714844-7.4086914l11.6115723-29.0288086h-12.1838379c-3.0302734 0-5.8007813-1.7119141-7.1552734-4.4223633l-16-32c-1.0224609-2.0439453-1.1210938-4.4272461-.2724609-6.5488281l10.9196777-27.2992554-18.49292 30.8207398zm424.6894531 195.2490234h-24c-4.4179688 0-8-3.581543-8-8v-32h-96v32c0 4.418457-3.5820313 8-8 8h-48c-4.4179688 0-8-3.581543-8-8v-32h-96v32c0 4.418457-3.5820313 8-8 8h-48c-4.4179688 0-8-3.581543-8-8v-32h-96v32c0 4.418457-3.5820313 8-8 8h-24v56h480z" fill="url(#SVGID_1_)"/></svg>