<svg id="gradient" enable-background="new 0 0 512 512" height="512" viewBox="0 0 512 512" width="512" xmlns="http://www.w3.org/2000/svg" xmlns:xlink="http://www.w3.org/1999/xlink"><linearGradient id="SVGID_1_" gradientUnits="userSpaceOnUse" x1="47.729" x2="457.657" y1="79.729" y2="489.657"><stop offset="0" stop-color="#ff5100"/><stop offset=".0699655" stop-color="#fe5e00"/><stop offset=".2008043" stop-color="#fc8200"/><stop offset=".3772338" stop-color="#f8bb00"/><stop offset=".3851138" stop-color="#f7be00"/><stop offset=".4164307" stop-color="#f1be0a"/><stop offset=".4700268" stop-color="#e1bf25"/><stop offset=".5394413" stop-color="#c6c052"/><stop offset=".6219459" stop-color="#a1c190"/><stop offset=".7146014" stop-color="#72c3dd"/><stop offset=".7273466" stop-color="#6bc4e8"/><stop offset=".7781056" stop-color="#67a6d1"/><stop offset=".8816878" stop-color="#5f6da6"/><stop offset=".9587147" stop-color="#594a8b"/><stop offset="1" stop-color="#573c81"/></linearGradient><path d="m424 304c-8.8222656 0-16 7.1777344-16 16 0 4.4179688-3.581543 8-8 8s-8-3.5820313-8-8c0-17.6445313 14.3549805-32 32-32 4.418457 0 8 3.5820313 8 8s-3.581543 8-8 8zm24 8c-4.418457 0-8 3.5820313-8 8 0 8.8222656-7.1777344 16-16 16-4.418457 0-8 3.5820313-8 8s3.581543 8 8 8c17.6450195 0 32-14.3554688 32-32 0-4.4179687-3.581543-8-8-8zm32-112v64c0 4.4179688-3.581543 8-8 8h-48c-4.418457 0-8-3.5820313-8-8v-64c0-4.4179688 3.581543-8 8-8h48c4.418457 0 8 3.5820313 8 8zm-16 8h-32v48h32zm-96 0h24c4.418457 0 8-3.5820313 8-8s-3.581543-8-8-8h-24c-4.418457 0-8 3.5820313-8 8s3.581543 8 8 8zm0 32h24c4.418457 0 8-3.5820313 8-8s-3.581543-8-8-8h-24c-4.418457 0-8 3.5820313-8 8s3.581543 8 8 8zm0 32h24c4.418457 0 8-3.5820313 8-8s-3.581543-8-8-8h-24c-4.418457 0-8 3.5820313-8 8s3.581543 8 8 8zm144-200v304c0 4.4179688-3.581543 8-8 8h-52.6860352l50.3427734 50.3427734c3.1245117 3.125 3.1245117 8.1894531 0 11.3144531-1.5620116 1.5615235-3.6093749 2.3427735-5.6567382 2.3427735s-4.0947266-.78125-5.6567383-2.3427734l-61.6572265-61.6572266h-4.6860352v56c0 4.4179688-3.581543 8-8 8s-8-3.5820313-8-8v-56h-4.6860352l-61.6572266 61.6572266c-1.5620116 1.5615234-3.6093749 2.3427734-5.6567382 2.3427734s-4.0947266-.78125-5.6567383-2.3427734c-3.1245117-3.125-3.1245117-8.1894531 0-11.3144531l50.3427735-50.3427735h-44.6860352c-4.418457 0-8-3.5820313-8-8v-109.578125l-16 24v45.578125c0 4.4179688-3.581543 8-8 8h-.6943359l-7.1323242 78.4580078 6.9819336 13.9638672c1.2402344 2.4804688 1.1074219 5.4257813-.3500977 7.7841797s-4.0327149 3.7939453-6.8051758 3.7939453h-80c-2.7724609 0-5.3476563-1.4355469-6.8051758-3.7939453s-1.590332-5.3037109-.3500977-7.7841797l6.9819336-13.9638672-7.1323242-78.4580078h-.6943359c-4.418457 0-8-3.5820313-8-8v-80h-16v152c0 22.0556641-17.9438477 40-40 40h-88v56c0 4.4179688-3.581543 8-8 8h-40c-4.418457 0-8-3.5820313-8-8v-128c0-4.4179688 3.581543-8 8-8h32v-264c0-22.0556641 17.9438477-40 40-40h56v-56c0-4.4179688 3.581543-8 8-8h160c4.418457 0 8 3.5820313 8 8v96c0 3.7565918-.567627 7.536377-1.6385498 11.1638184 1.052124 1.3842773 1.6385498 3.0776367 1.6385498 4.8361816v16c0 2.1220703-.8427734 4.15625-2.3432617 5.6572266l-9.972168 9.972168c2.6934815 3.4077148 4.3154297 7.699707 4.3154297 12.3706054 0 9.6582031-6.8823242 17.7392578-16 19.5986328v.4013672c1.2421875 0 2.4667969.2890625 3.5776367.8447266l16 8c1.0356445.5175781 1.9462891 1.2539063 2.6694336 2.1572266l17.7529297 22.191162v-145.1931152c0-4.4179688 3.581543-8 8-8h168c4.418457 0 8 3.5820313 8 8zm-240 176v-8h-32v56h32v-6.2414551l-9.5688477-1.9138184c-2.8149414-.5634766-5.112793-2.5917969-6.0205078-5.3144531l-8-24c-.8134766-2.4404297-.4042969-5.1220703 1.0996094-7.2080078 1.503418-2.0859375 3.9179688-3.3222656 6.4897461-3.3222656zm-9.7585449-24-4.8000488-24h-2.8828125l-4.7999878 24zm-54.2414551-144c-13.2338867 0-24 10.7666016-24 24v24h28.6860352l-2.3427734-2.3427734c-3.1245117-3.125-3.1245117-8.1894531 0-11.3144531l16-16c1.1813354-1.1813965 2.696228-1.9470215 4.3222046-2.2226563-1.171814-3.3618164-3.0924072-6.4665527-5.6830444-9.1044922-4.6079103-4.5244141-10.6367189-7.015625-16.982422-7.015625zm84.6865234 40h-4.6865234c-4.418457 0-8-3.5820313-8-8h-44.6865234l-8 8 8 8h44.6865234c4.418457 0 8 3.5820313 8 8v4.6865234l8-8v-9.3730469zm-108.6865234 72 9.203125 6.9023438 30.796875-12.3186036v-10.5837402c-2.4633789 0-4.7895508-1.1347656-6.3056641-3.0771484-1.5161133-1.9414063-2.0527344-4.4736328-1.4555664-6.8632813l5.5148926-22.0595703h-37.7536621zm104-28c0-2.2060547-1.7944336-4-4-4h-4c-4.418457 0-8-3.5820313-8-8v-8h-33.7536621l-4.0744629 16.2978516c3.362793.946289 5.828125 4.0361328 5.828125 7.7021484v16h32v-8c0-4.4179688 3.581543-8 8-8h4c2.2055664 0 4-1.7939453 4-4zm-136-100h56c10.5957031 0 20.6313477 4.1425781 28.2578125 11.6630859.0258789.0263672.0522461.0527344.078125.0791016 5.5949097 5.6726074 9.3161621 12.6794434 10.8574829 20.2578125h40.8065796c4.418457 0 8 3.5820313 8 8v-88h-144zm-104.0024414 320h-31.9975586v112h24v-88c0-8.7236328 2.8076172-17.0673828 7.9975586-24zm64.0004883 48c-5.1894531-6.9326172-7.9980469-15.2763672-7.9980469-24 0-6.3457031-2.4916992-12.375-7.0166016-16.9833984-4.6083984-4.5253907-10.6376953-7.0166016-16.9833984-7.0166016s-12.375 2.4912109-16.9833984 7.0166016c-4.5249024 4.6083984-7.0166016 10.6376953-7.0166016 16.9833984v24zm56.0019531-24v-166.7041016l-30.1459961-36.1748047c-1.1977539-1.4374999-1.8540039-3.2499999-1.8540039-5.1210937v-16c0-4.4179688 3.581543-8 8-8h16c1.730957 0 3.4150391.5615234 4.7998047 1.5996094l3.2001953 2.4001465v-75.9997559c0-8.9970703 2.9863281-17.3105469 8.019043-24h-96.019043c-13.2338867 0-24 10.7666016-24 24v264h24c10.5957031 0 20.6313477 4.1425781 28.2573242 11.6630859.0263672.0263672.0527344.0527344.0786133.0791016 7.5214844 7.6259766 11.6640625 17.6611328 11.6640625 28.2578125 0 6.3457031 2.4916992 12.375 7.0170898 16.9824219 4.6079102 4.5253906 10.6372071 7.0175781 16.9829102 7.0175781 13.2333984 0 24-10.7666016 24-24zm128-80v-33.4414063l-8-1.6000977v11.041504c0 4.4179688-3.581543 8-8 8h-48c-4.418457 0-8-3.5820313-8-8v-72c0-4.4179688 3.581543-8 8-8h1.4414063l4.7999878-24h-4.7008667l-38.5693359 15.4277344c-2.5922852 1.0371094-5.5375977.6464844-7.7709961-1.0273438l-29.8666993-22.4003906h-5.3334961v5.1035156l35.7470703 42.8964844h20.2529297c4.418457 0 8 3.5820313 8 8v80c4.1376953 0 7.5922852 3.1552734 7.9672852 7.2753906l8 88c.1347656 1.4814453-.1464844 2.9716797-.8120117 4.3027344l-2.2109376 4.421875h19.0556641v-96c0-4.4179688 3.581543-8 8-8s8 3.5820313 8 8v96h19.0556641l-2.2109375-4.421875c-.6655273-1.3310547-.9467773-2.8212891-.8120117-4.3027344l8-88c.3749999-4.1201172 3.8295898-7.2753906 7.9672851-7.2753906zm30.0986328-87.5703125-27.2480469-34.0605469-12.7392578-6.3691406h-12.3527832l4.8000488 24h1.4414063c4.418457 0 8 3.5820313 8 8v16h8c4.418457 0 8 3.5820313 8 8s-3.581543 8-8 8h-28.9003906l3.0219727 9.0654297 30.1940918 6.0390625zm169.9013672-160.4296875h-152v288h152zm-136 56c0-22.0556641 17.9438477-40 40-40 8.1407471 0 15.7172852 2.4504395 22.0421143 6.644043l4.3011475-4.3012695c1.4999999-1.5000001 3.5351562-2.3427735 5.6567382-2.3427735h40c4.418457 0 8 3.5820313 8 8s-3.581543 8-8 8h-36.6865234l-1.9575195 1.9575195c4.1936034 6.3251953 6.6440429 13.9016114 6.6440429 22.0424805 0 6.0449219-1.3553467 11.7773438-3.7664795 16.9199219l7.0799561 7.0800781h28.6865234c4.418457 0 8 3.5820313 8 8s-3.581543 8-8 8h-32c-2.121582 0-4.1567383-.8427734-5.6567383-2.3427734l-7.782959-7.782959c-7.0697021 6.2922363-16.3737793 10.1257324-26.5603027 10.1257324-22.0561523 0-40-17.9443359-40-40zm16 0c0 13.2333984 10.7666016 24 24 24 6.2329102 0 11.9172363-2.3896484 16.1884766-6.2993164-.5568848-2.5700684.1569824-5.3598633 2.1547852-7.3579102 1.1989746-1.1987305 2.6845703-1.9328613 4.2359619-2.2114258.9178466-2.5405273 1.4207763-5.2780761 1.4207763-8.1313476 0-3.7006836-.8430176-7.2075195-2.345459-10.3408203l-15.9978027 15.9980469c-1.5620117 1.5615234-3.609375 2.3427734-5.6567383 2.3427734s-4.0947266-.78125-5.6567383-2.3427734c-3.1245117-3.125-3.1245117-8.1894531 0-11.3144531l15.9973145-15.9973145c-3.1331787-1.5024414-6.6401367-2.345459-10.3405762-2.345459-13.2333984 0-24 10.7666016-24 24zm96-8h-8c-4.418457 0-8 3.5820313-8 8s3.581543 8 8 8h8c4.418457 0 8-3.5820313 8-8s-3.581543-8-8-8zm-368-16h40c4.418457 0 8-3.5820313 8-8s-3.581543-8-8-8h-40c-4.418457 0-8 3.5820313-8 8s3.581543 8 8 8zm-24 32h64c4.418457 0 8-3.5820313 8-8s-3.581543-8-8-8h-64c-4.418457 0-8 3.5820313-8 8s3.581543 8 8 8zm72 24c0-4.4179688-3.581543-8-8-8h-64c-4.418457 0-8 3.5820313-8 8s3.581543 8 8 8h64c4.418457 0 8-3.5820312 8-8zm-72 40h32c4.418457 0 8-3.5820313 8-8s-3.581543-8-8-8h-32c-4.418457 0-8 3.5820313-8 8s3.581543 8 8 8zm64 16h-64c-4.418457 0-8 3.5820313-8 8s3.581543 8 8 8h64c4.418457 0 8-3.5820313 8-8s-3.581543-8-8-8zm0 32h-40c-4.418457 0-8 3.5820313-8 8s3.581543 8 8 8h40c4.418457 0 8-3.5820313 8-8s-3.581543-8-8-8zm0 32h-64c-4.418457 0-8 3.5820313-8 8s3.581543 8 8 8h64c4.418457 0 8-3.5820313 8-8s-3.581543-8-8-8zm0 32h-64c-4.418457 0-8 3.5820313-8 8s3.581543 8 8 8h64c4.418457 0 8-3.5820313 8-8s-3.581543-8-8-8zm0 32h-24c-4.418457 0-8 3.5820313-8 8s3.581543 8 8 8h24c4.418457 0 8-3.5820313 8-8s-3.581543-8-8-8z" fill="url(#SVGID_1_)"/></svg>